<svg xmlns="http://www.w3.org/2000/svg" xmlns:xlink="http://www.w3.org/1999/xlink" width="1920" zoomAndPan="magnify" viewBox="0 0 1440 809.999993" height="1080" preserveAspectRatio="xMidYMid meet" version="1.0"><defs><clipPath id="50fc61fe26"><path d="M 635 362 L 817 362 L 817 567 L 635 567 Z M 635 362 " clip-rule="nonzero"/></clipPath><clipPath id="4c3ab2ce2c"><path d="M 776.257812 448.582031 C 761.054688 461.484375 742.488281 469.671875 724 477.160156 C 705.539062 484.675781 686.671875 491.789062 670.179688 503.019531 C 670.046875 503.101562 669.910156 503.207031 669.800781 503.289062 C 650.15625 516.785156 637.675781 538.414062 635.414062 562.144531 C 635.253906 563.761719 635.117188 565.375 635.007812 566.992188 C 639.589844 547.597656 653.765625 531.597656 670.234375 520.367188 C 686.726562 509.132812 705.566406 502.023438 724.054688 494.507812 C 742.515625 486.992188 761.109375 478.804688 776.308594 465.929688 C 805.472656 441.203125 818.675781 401.039062 816.117188 362.84375 C 814.257812 395.464844 800.996094 427.574219 776.257812 448.582031 Z M 776.257812 448.582031 " clip-rule="nonzero"/></clipPath><linearGradient x1="-5835.1768" gradientTransform="matrix(-0.269504, 0, 0, 0.26936, -846.869186, 243.006978)" y1="444.899891" x2="-5835.1768" gradientUnits="userSpaceOnUse" y2="1202.799954" id="17f58a4eb7"><stop stop-opacity="1" stop-color="rgb(45.747375%, 65.864563%, 25.05188%)" offset="0"/><stop stop-opacity="1" stop-color="rgb(45.657349%, 65.760803%, 25.042725%)" offset="0.125"/><stop stop-opacity="1" stop-color="rgb(45.478821%, 65.551758%, 25.02594%)" offset="0.25"/><stop stop-opacity="1" stop-color="rgb(45.298767%, 65.344238%, 25.009155%)" offset="0.375"/><stop stop-opacity="1" stop-color="rgb(45.120239%, 65.136719%, 24.993896%)" offset="0.5"/><stop stop-opacity="1" stop-color="rgb(44.941711%, 64.927673%, 24.977112%)" offset="0.625"/><stop stop-opacity="1" stop-color="rgb(44.761658%, 64.720154%, 24.960327%)" offset="0.75"/><stop stop-opacity="1" stop-color="rgb(44.58313%, 64.512634%, 24.943542%)" offset="0.875"/><stop stop-opacity="1" stop-color="rgb(44.404602%, 64.303589%, 24.926758%)" offset="1"/></linearGradient><clipPath id="02b4d22235"><path d="M 622 243 L 799 243 L 799 536 L 622 536 Z M 622 243 " clip-rule="nonzero"/></clipPath><clipPath id="632900989a"><path d="M 798.355469 342.292969 C 794.851562 305.769531 777.308594 271.722656 754.453125 243.007812 C 761.945312 264.257812 751.460938 288.3125 735.320312 304.070312 C 719.203125 319.828125 698.234375 329.390625 678.589844 340.433594 C 658.941406 351.476562 639.429688 365.214844 629.726562 385.550781 C 622.289062 401.148438 621.425781 419.222656 624.175781 436.273438 C 625.980469 447.53125 629.296875 458.46875 633.070312 469.242188 C 638.296875 456.285156 645.386719 444.085938 654.117188 433.175781 C 672.039062 410.738281 694.597656 392.3125 717.773438 375.34375 C 762.054688 342.914062 764.964844 329.632812 765.828125 305.660156 C 770.410156 325.082031 760.707031 345.390625 747.097656 359.988281 C 733.484375 374.589844 716.15625 385.121094 700.847656 397.941406 C 660.289062 431.855469 634.335938 482.65625 630.671875 535.371094 C 634.929688 517.378906 648.054688 502.535156 663.359375 492.109375 C 678.667969 481.6875 696.132812 475.085938 713.273438 468.136719 C 730.414062 461.160156 747.636719 453.59375 761.730469 441.605469 C 789.703125 417.875 801.859375 378.816406 798.355469 342.292969 Z M 798.355469 342.292969 " clip-rule="nonzero"/></clipPath><linearGradient x1="-5779.9199" gradientTransform="matrix(-0.269504, 0, 0, 0.26936, -846.869186, 243.006978)" y1="-0.0000999603" x2="-5779.9199" gradientUnits="userSpaceOnUse" y2="1085.399923" id="c223a339bd"><stop stop-opacity="1" stop-color="rgb(46.588135%, 66.841125%, 25.1297%)" offset="0"/><stop stop-opacity="1" stop-color="rgb(46.459961%, 66.691589%, 25.117493%)" offset="0.125"/><stop stop-opacity="1" stop-color="rgb(46.203613%, 66.394043%, 25.093079%)" offset="0.25"/><stop stop-opacity="1" stop-color="rgb(45.947266%, 66.096497%, 25.07019%)" offset="0.375"/><stop stop-opacity="1" stop-color="rgb(45.690918%, 65.797424%, 25.045776%)" offset="0.5"/><stop stop-opacity="1" stop-color="rgb(45.43457%, 65.499878%, 25.022888%)" offset="0.625"/><stop stop-opacity="1" stop-color="rgb(45.178223%, 65.202332%, 24.998474%)" offset="0.75"/><stop stop-opacity="1" stop-color="rgb(44.921875%, 64.904785%, 24.975586%)" offset="0.875"/><stop stop-opacity="1" stop-color="rgb(44.665527%, 64.607239%, 24.951172%)" offset="1"/></linearGradient></defs><rect x="-144" width="1728" fill="#ffffff" y="-80.999999" height="971.999992" fill-opacity="1"/><rect x="-144" width="1728" fill="#ffffff" y="-80.999999" height="971.999992" fill-opacity="1"/><g clip-path="url(#50fc61fe26)"><g clip-path="url(#4c3ab2ce2c)"><path fill="url(#17f58a4eb7)" d="M 818.675781 362.84375 L 818.675781 566.992188 L 635.007812 566.992188 L 635.007812 362.84375 Z M 818.675781 362.84375 " fill-rule="nonzero"/></g></g><g clip-path="url(#02b4d22235)"><g clip-path="url(#632900989a)"><path fill="url(#c223a339bd)" d="M 801.859375 243.007812 L 801.859375 535.371094 L 621.425781 535.371094 L 621.425781 243.007812 Z M 801.859375 243.007812 " fill-rule="nonzero"/></g></g></svg>