<svg xmlns="http://www.w3.org/2000/svg" xmlns:xlink="http://www.w3.org/1999/xlink" width="1920" zoomAndPan="magnify" viewBox="0 0 1440 809.999993" height="1080" preserveAspectRatio="xMidYMid meet" version="1.0"><defs><clipPath id="b6c5b48de7"><path d="M 644 212.660156 L 795 212.660156 L 795 363 L 644 363 Z M 644 212.660156 " clip-rule="nonzero"/></clipPath><clipPath id="996f4da8d5"><path d="M 589.757812 371 L 850.007812 371 L 850.007812 563.660156 L 589.757812 563.660156 Z M 589.757812 371 " clip-rule="nonzero"/></clipPath></defs><g clip-path="url(#b6c5b48de7)"><path fill="#000000" d="M 794.789062 287.636719 C 794.789062 246.316406 761.183594 212.695312 719.882812 212.695312 C 678.582031 212.695312 644.976562 246.316406 644.976562 287.636719 C 644.976562 328.839844 678.582031 362.460938 719.882812 362.460938 C 761.183594 362.460938 794.789062 328.839844 794.789062 287.636719 Z M 794.789062 287.636719 " fill-opacity="1" fill-rule="nonzero"/></g><g clip-path="url(#996f4da8d5)"><path fill="#000000" d="M 589.757812 501.363281 L 589.757812 524.003906 C 589.757812 545.851562 607.523438 563.625 629.363281 563.625 L 810.40625 563.625 C 832.242188 563.625 850.007812 545.851562 850.007812 524.003906 L 850.007812 501.363281 C 850.007812 429.59375 791.621094 371.179688 719.882812 371.179688 C 648.144531 371.179688 589.757812 429.59375 589.757812 501.363281 Z M 589.757812 501.363281 " fill-opacity="1" fill-rule="nonzero"/></g></svg>